<svg xmlns="http://www.w3.org/2000/svg" width="360" height="640" viewBox="0 0 360 640">
  <rect width="360" height="640" rx="24" fill="#120000"/>
  <rect x="12" y="12" width="336" height="28" rx="6" fill="#3f0000"/>
  <text x="180" y="31" text-anchor="middle" fill="#fecaca" font-family="system-ui,sans-serif" font-size="12">sensör açık · seviye 2</text>
  <text x="180" y="80" text-anchor="middle" fill="#fecaca" font-family="system-ui,sans-serif" font-size="28" font-weight="700" letter-spacing="6">SOS</text>
  <text x="180" y="104" text-anchor="middle" fill="#fca5a5" font-family="system-ui,sans-serif" font-size="11">salla → düdük · bas → 112 ekranı</text>
  <rect x="24" y="130" width="312" height="72" rx="10" fill="#1a0505" stroke="#5c0000"/>
  <text x="40" y="158" fill="#fecaca" font-family="system-ui,sans-serif" font-size="13">sensör: açık</text>
  <text x="40" y="180" fill="#fecaca" font-family="system-ui,sans-serif" font-size="13">seviye: 2</text>
  <rect x="24" y="220" width="312" height="70" rx="12" fill="#ca8a04"/>
  <text x="180" y="262" text-anchor="middle" fill="#1c1000" font-family="system-ui,sans-serif" font-size="22" font-weight="800">DÜDÜK</text>
  <rect x="24" y="310" width="312" height="90" rx="16" fill="#dc2626"/>
  <text x="180" y="355" text-anchor="middle" fill="#fff" font-family="system-ui,sans-serif" font-size="28" font-weight="900">SOS</text>
  <text x="180" y="380" text-anchor="middle" fill="#fecaca" font-family="system-ui,sans-serif" font-size="11">konum + sms + ara</text>
  <rect x="24" y="420" width="148" height="40" rx="8" fill="#333"/>
  <rect x="188" y="420" width="148" height="40" rx="8" fill="#333"/>
  <text x="98" y="445" text-anchor="middle" fill="#fff" font-family="system-ui,sans-serif" font-size="12">konum</text>
  <text x="262" y="445" text-anchor="middle" fill="#fff" font-family="system-ui,sans-serif" font-size="12">sms taslak</text>
  <rect x="24" y="472" width="148" height="40" rx="8" fill="#333"/>
  <rect x="188" y="472" width="148" height="40" rx="8" fill="#333"/>
  <text x="98" y="497" text-anchor="middle" fill="#fff" font-family="system-ui,sans-serif" font-size="12">paylaş</text>
  <text x="262" y="497" text-anchor="middle" fill="#fff" font-family="system-ui,sans-serif" font-size="12">titre</text>
  <text x="180" y="560" text-anchor="middle" fill="#a8a29e" font-family="system-ui,sans-serif" font-size="10">afet-defterim · unlicense</text>
</svg>
